{
	"asset":{
		"generator":"Khronos glTF Blender I/O v4.3.47",
		"version":"2.0"
	},
	"extensionsUsed":[
		"KHR_materials_emissive_strength"
	],
	"scene":2,
	"scenes":[
		{
			"name":"1- time: midday"
		},
		{
			"name":"2- time: sunset"
		},
		{
			"name":"3- time: night",
			"nodes":[
				0,
				1,
				2,
				3,
				4,
				5,
				6,
				7,
				8,
				9,
				10,
				11,
				12,
				13,
				14,
				15,
				16,
				17,
				18
			]
		}
	],
	"nodes":[
		{
			"mesh":0,
			"name":"Plane.054",
			"scale":[
				1.433476209640503,
				3.5228374004364014,
				1.8771711587905884
			],
			"translation":[
				-2.146265983581543,
				6.655886650085449,
				-0.03110790252685547
			]
		},
		{
			"mesh":1,
			"name":"Plane.053",
			"scale":[
				1.443715214729309,
				0.1409134864807129,
				1.885703682899475
			],
			"translation":[
				-2.146265983581543,
				6.244854927062988,
				-0.03110790252685547
			]
		},
		{
			"mesh":2,
			"name":"Plane.052",
			"scale":[
				1.2030961513519287,
				0.1409134864807129,
				1.885703682899475
			],
			"translation":[
				-2.3112173080444336,
				8.804634094238281,
				-0.03110790252685547
			]
		},
		{
			"mesh":3,
			"name":"Plane.051",
			"scale":[
				1.1945635080337524,
				3.5228374004364014,
				1.8771711587905884
			],
			"translation":[
				-2.3112173080444336,
				9.215667724609375,
				-0.03110790252685547
			]
		},
		{
			"mesh":4,
			"name":"Plane.050",
			"rotation":[
				0,
				0,
				0.060136374086141586,
				0.99819016456604
			],
			"scale":[
				0.008532595820724964,
				0.033388420939445496,
				0.01706519164144993
			],
			"translation":[
				-0.17028717696666718,
				0.04554153233766556,
				-0.0005121231079101562
			]
		},
		{
			"mesh":5,
			"name":"Plane.049",
			"scale":[
				0.008532595820724964,
				0.033388420939445496,
				0.01706519164144993
			],
			"translation":[
				-2.179159164428711,
				0.04554153233766556,
				1.7079381942749023
			]
		},
		{
			"mesh":6,
			"name":"Plane.048",
			"scale":[
				0.008532595820724964,
				0.033388420939445496,
				0.01706519164144993
			],
			"translation":[
				-3.193208694458008,
				0.04554153233766556,
				-1.7123479843139648
			]
		},
		{
			"mesh":7,
			"name":"Plane.047",
			"scale":[
				0.008532595820724964,
				0.033388420939445496,
				0.01706519164144993
			],
			"translation":[
				-2.179159164428711,
				0.04554153233766556,
				-1.7123479843139648
			]
		},
		{
			"mesh":8,
			"name":"Plane.046",
			"scale":[
				0.008532595820724964,
				0.033388420939445496,
				0.01706519164144993
			],
			"translation":[
				-2.179159164428711,
				0.04554153233766556,
				1.7079381942749023
			]
		},
		{
			"mesh":9,
			"name":"Plane.045",
			"scale":[
				0.008532595820724964,
				0.033388420939445496,
				0.01706519164144993
			],
			"translation":[
				-3.193208694458008,
				0.04554153233766556,
				1.7079381942749023
			]
		},
		{
			"mesh":10,
			"name":"Plane.044",
			"scale":[
				0.03413038328289986,
				0.034872349351644516,
				0.03413038328289986
			],
			"translation":[
				-3.352842330932617,
				0.04554153233766556,
				0.0026559829711914062
			]
		},
		{
			"mesh":11,
			"name":"0_curve_.002",
			"rotation":[
				0.70710688829422,
				0,
				0,
				0.7071066498756409
			],
			"scale":[
				0.0244660172611475,
				0.03413038328289986,
				0.024269741028547287
			],
			"translation":[
				1.7633047103881836,
				1.7106339931488037,
				1.552128791809082
			]
		},
		{
			"mesh":12,
			"name":"Plane.043",
			"rotation":[
				0.70710688829422,
				0,
				0,
				0.7071066498756409
			],
			"scale":[
				0.03413038328289986,
				0.03413038328289986,
				0.8532596826553345
			],
			"translation":[
				-2.00075626373291,
				5.816140174865723,
				1.6886491775512695
			]
		},
		{
			"mesh":13,
			"name":"Circle.002",
			"rotation":[
				0,
				-0.7071066498756409,
				-0.70710688829422,
				5.338507236274381e-08
			],
			"scale":[
				2.7304294109344482,
				69.47723388671875,
				1.333709955215454
			],
			"translation":[
				0.2176169902086258,
				0.038910873234272,
				1.7596864700317383
			]
		},
		{
			"mesh":14,
			"name":"Circle.001",
			"rotation":[
				0,
				-0.7071066498756409,
				-0.70710688829422,
				5.338507236274381e-08
			],
			"scale":[
				2.667419910430908,
				72.02025604248047,
				2.667419910430908
			],
			"translation":[
				-2.0381250381469727,
				0.038910873234272,
				1.8311147689819336
			]
		},
		{
			"mesh":15,
			"name":"Plane.042",
			"scale":[
				0.03413038328289986,
				0.03413038328289986,
				0.03413038328289986
			],
			"translation":[
				-3.294626235961914,
				0.04554153233766556,
				-1.7051000595092773
			]
		},
		{
			"mesh":16,
			"name":"Plane.041",
			"scale":[
				0.03413038328289986,
				0.03413038328289986,
				0.03413038328289986
			],
			"translation":[
				-3.294626235961914,
				0.04554153233766556,
				1.7079381942749023
			]
		},
		{
			"mesh":17,
			"name":"0_curve_.003",
			"rotation":[
				0.70710688829422,
				0,
				0,
				0.7071066498756409
			],
			"scale":[
				0.03413038328289986,
				0.03413038328289986,
				0.03413038328289986
			],
			"translation":[
				-3.324777603149414,
				0.04554153233766556,
				1.5521268844604492
			]
		},
		{
			"mesh":18,
			"name":"0_curve_.039",
			"rotation":[
				0.70710688829422,
				0,
				0,
				0.7071066498756409
			],
			"scale":[
				0.03413038328289986,
				0.03413038328289986,
				0.03413038328289986
			],
			"translation":[
				-3.324777603149414,
				0.04554153233766556,
				-1.7243890762329102
			]
		}
	],
	"materials":[
		{
			"doubleSided":true,
			"name":"Vetro.002",
			"pbrMetallicRoughness":{
				"baseColorTexture":{
					"index":0
				}
			}
		},
		{
			"doubleSided":true,
			"name":"Acciaio.002",
			"pbrMetallicRoughness":{
				"baseColorTexture":{
					"index":1
				}
			}
		},
		{
			"doubleSided":true,
			"emissiveFactor":[
				0.05002725124359131,
				0.16026845574378967,
				0.8000000715255737
			],
			"name":"LightB.002",
			"pbrMetallicRoughness":{
				"baseColorFactor":[
					0,
					0,
					0,
					1
				]
			}
		},
		{
			"doubleSided":true,
			"name":"Scifi2.002",
			"pbrMetallicRoughness":{
				"baseColorTexture":{
					"index":2
				}
			}
		},
		{
			"doubleSided":true,
			"emissiveFactor":[
				1,
				0.05015464127063751,
				0.021824240684509277
			],
			"extensions":{
				"KHR_materials_emissive_strength":{
					"emissiveStrength":3.200000286102295
				}
			},
			"name":"LightR.002",
			"pbrMetallicRoughness":{
				"baseColorFactor":[
					0,
					0,
					0,
					1
				]
			}
		},
		{
			"doubleSided":true,
			"name":"Scifi.002",
			"pbrMetallicRoughness":{
				"baseColorTexture":{
					"index":3
				}
			}
		}
	],
	"meshes":[
		{
			"name":"Plane.012",
			"primitives":[
				{
					"attributes":{
						"POSITION":0,
						"NORMAL":1
					},
					"indices":2,
					"material":0
				}
			]
		},
		{
			"name":"Plane.014",
			"primitives":[
				{
					"attributes":{
						"POSITION":3,
						"NORMAL":4
					},
					"indices":2,
					"material":1
				}
			]
		},
		{
			"name":"Plane.015",
			"primitives":[
				{
					"attributes":{
						"POSITION":5,
						"NORMAL":6
					},
					"indices":2,
					"material":1
				}
			]
		},
		{
			"name":"Plane.016",
			"primitives":[
				{
					"attributes":{
						"POSITION":7,
						"NORMAL":8
					},
					"indices":2,
					"material":0
				}
			]
		},
		{
			"name":"Plane.017",
			"primitives":[
				{
					"attributes":{
						"POSITION":9,
						"NORMAL":10,
						"TEXCOORD_0":11
					},
					"indices":12,
					"material":2
				}
			]
		},
		{
			"name":"Plane.018",
			"primitives":[
				{
					"attributes":{
						"POSITION":13,
						"NORMAL":14,
						"TEXCOORD_0":15
					},
					"indices":12,
					"material":2
				}
			]
		},
		{
			"name":"Plane.019",
			"primitives":[
				{
					"attributes":{
						"POSITION":16,
						"NORMAL":17,
						"TEXCOORD_0":18
					},
					"indices":12,
					"material":2
				}
			]
		},
		{
			"name":"Plane.020",
			"primitives":[
				{
					"attributes":{
						"POSITION":19,
						"NORMAL":20,
						"TEXCOORD_0":21
					},
					"indices":12,
					"material":2
				}
			]
		},
		{
			"name":"Plane.021",
			"primitives":[
				{
					"attributes":{
						"POSITION":22,
						"NORMAL":23,
						"TEXCOORD_0":24
					},
					"indices":12,
					"material":2
				}
			]
		},
		{
			"name":"Plane.022",
			"primitives":[
				{
					"attributes":{
						"POSITION":25,
						"NORMAL":26,
						"TEXCOORD_0":27
					},
					"indices":12,
					"material":2
				}
			]
		},
		{
			"name":"Plane.023",
			"primitives":[
				{
					"attributes":{
						"POSITION":28,
						"NORMAL":29,
						"TEXCOORD_0":30
					},
					"indices":31,
					"material":3
				},
				{
					"attributes":{
						"POSITION":32,
						"NORMAL":33,
						"TEXCOORD_0":34
					},
					"indices":35,
					"material":4
				}
			]
		},
		{
			"name":"Mesh.001",
			"primitives":[
				{
					"attributes":{
						"POSITION":36,
						"NORMAL":37,
						"TEXCOORD_0":38
					},
					"indices":39,
					"material":1
				}
			]
		},
		{
			"name":"Plane.024",
			"primitives":[
				{
					"attributes":{
						"POSITION":40,
						"NORMAL":41,
						"TEXCOORD_0":42
					},
					"indices":43,
					"material":1
				}
			]
		},
		{
			"name":"Circle.002",
			"primitives":[
				{
					"attributes":{
						"POSITION":44,
						"NORMAL":45,
						"TEXCOORD_0":46
					},
					"indices":47,
					"material":5
				}
			]
		},
		{
			"name":"Circle.004",
			"primitives":[
				{
					"attributes":{
						"POSITION":48,
						"NORMAL":49,
						"TEXCOORD_0":50
					},
					"indices":51,
					"material":5
				}
			]
		},
		{
			"name":"Plane.025",
			"primitives":[
				{
					"attributes":{
						"POSITION":52,
						"NORMAL":53,
						"TEXCOORD_0":54
					},
					"indices":12,
					"material":3
				}
			]
		},
		{
			"name":"Plane.026",
			"primitives":[
				{
					"attributes":{
						"POSITION":55,
						"NORMAL":56,
						"TEXCOORD_0":57
					},
					"indices":12,
					"material":3
				}
			]
		},
		{
			"name":"Mesh.002",
			"primitives":[
				{
					"attributes":{
						"POSITION":58,
						"NORMAL":59,
						"TEXCOORD_0":60
					},
					"indices":61,
					"material":5
				}
			]
		},
		{
			"name":"Mesh.003",
			"primitives":[
				{
					"attributes":{
						"POSITION":62,
						"NORMAL":63
					},
					"indices":64,
					"material":0
				}
			]
		}
	],
	"textures":[
		{
			"sampler":0,
			"source":0
		},
		{
			"sampler":0,
			"source":0
		},
		{
			"sampler":0,
			"source":0
		},
		{
			"sampler":0,
			"source":0
		}
	],
	"images":[
		{
			"mimeType":"image/jpeg",
			"name":"future",
			"uri":"future.jpg"
		}
	],
	"accessors":[
		{
			"bufferView":0,
			"componentType":5126,
			"count":24,
			"max":[
				1,
				0.12110404670238495,
				1
			],
			"min":[
				-1,
				-0.12110404670238495,
				-1
			],
			"type":"VEC3"
		},
		{
			"bufferView":1,
			"componentType":5126,
			"count":24,
			"type":"VEC3"
		},
		{
			"bufferView":2,
			"componentType":5123,
			"count":36,
			"type":"SCALAR"
		},
		{
			"bufferView":3,
			"componentType":5126,
			"count":24,
			"max":[
				1,
				0.12110404670238495,
				1
			],
			"min":[
				-1,
				-0.12110404670238495,
				-1
			],
			"type":"VEC3"
		},
		{
			"bufferView":4,
			"componentType":5126,
			"count":24,
			"type":"VEC3"
		},
		{
			"bufferView":5,
			"componentType":5126,
			"count":24,
			"max":[
				1,
				0.12110404670238495,
				1
			],
			"min":[
				-1,
				-0.12110404670238495,
				-1
			],
			"type":"VEC3"
		},
		{
			"bufferView":6,
			"componentType":5126,
			"count":24,
			"type":"VEC3"
		},
		{
			"bufferView":7,
			"componentType":5126,
			"count":24,
			"max":[
				1,
				0.12110404670238495,
				1
			],
			"min":[
				-1,
				-0.12110404670238495,
				-1
			],
			"type":"VEC3"
		},
		{
			"bufferView":8,
			"componentType":5126,
			"count":24,
			"type":"VEC3"
		},
		{
			"bufferView":9,
			"componentType":5126,
			"count":24,
			"max":[
				1,
				460,
				1
			],
			"min":[
				-1,
				0,
				-1
			],
			"type":"VEC3"
		},
		{
			"bufferView":10,
			"componentType":5126,
			"count":24,
			"type":"VEC3"
		},
		{
			"bufferView":11,
			"componentType":5126,
			"count":24,
			"type":"VEC2"
		},
		{
			"bufferView":12,
			"componentType":5123,
			"count":36,
			"type":"SCALAR"
		},
		{
			"bufferView":13,
			"componentType":5126,
			"count":24,
			"max":[
				1,
				460,
				1
			],
			"min":[
				-1,
				0,
				-1
			],
			"type":"VEC3"
		},
		{
			"bufferView":14,
			"componentType":5126,
			"count":24,
			"type":"VEC3"
		},
		{
			"bufferView":15,
			"componentType":5126,
			"count":24,
			"type":"VEC2"
		},
		{
			"bufferView":16,
			"componentType":5126,
			"count":24,
			"max":[
				1,
				460,
				1
			],
			"min":[
				-1,
				0,
				-1
			],
			"type":"VEC3"
		},
		{
			"bufferView":17,
			"componentType":5126,
			"count":24,
			"type":"VEC3"
		},
		{
			"bufferView":18,
			"componentType":5126,
			"count":24,
			"type":"VEC2"
		},
		{
			"bufferView":19,
			"componentType":5126,
			"count":24,
			"max":[
				1,
				460,
				1
			],
			"min":[
				-1,
				0,
				-1
			],
			"type":"VEC3"
		},
		{
			"bufferView":20,
			"componentType":5126,
			"count":24,
			"type":"VEC3"
		},
		{
			"bufferView":21,
			"componentType":5126,
			"count":24,
			"type":"VEC2"
		},
		{
			"bufferView":22,
			"componentType":5126,
			"count":24,
			"max":[
				1,
				460,
				1
			],
			"min":[
				-1,
				0,
				-1
			],
			"type":"VEC3"
		},
		{
			"bufferView":23,
			"componentType":5126,
			"count":24,
			"type":"VEC3"
		},
		{
			"bufferView":24,
			"componentType":5126,
			"count":24,
			"type":"VEC2"
		},
		{
			"bufferView":25,
			"componentType":5126,
			"count":24,
			"max":[
				1,
				460,
				1
			],
			"min":[
				-1,
				0,
				-1
			],
			"type":"VEC3"
		},
		{
			"bufferView":26,
			"componentType":5126,
			"count":24,
			"type":"VEC3"
		},
		{
			"bufferView":27,
			"componentType":5126,
			"count":24,
			"type":"VEC2"
		},
		{
			"bufferView":28,
			"componentType":5126,
			"count":36,
			"max":[
				1,
				469.7872314453125,
				1
			],
			"min":[
				-1,
				0,
				-1
			],
			"type":"VEC3"
		},
		{
			"bufferView":29,
			"componentType":5126,
			"count":36,
			"type":"VEC3"
		},
		{
			"bufferView":30,
			"componentType":5126,
			"count":36,
			"type":"VEC2"
		},
		{
			"bufferView":31,
			"componentType":5123,
			"count":54,
			"type":"SCALAR"
		},
		{
			"bufferView":32,
			"componentType":5126,
			"count":20,
			"max":[
				0.699999988079071,
				474.68084716796875,
				0.699999988079071
			],
			"min":[
				-0.699999988079071,
				469.7872314453125,
				-0.699999988079071
			],
			"type":"VEC3"
		},
		{
			"bufferView":33,
			"componentType":5126,
			"count":20,
			"type":"VEC3"
		},
		{
			"bufferView":34,
			"componentType":5126,
			"count":20,
			"type":"VEC2"
		},
		{
			"bufferView":35,
			"componentType":5123,
			"count":30,
			"type":"SCALAR"
		},
		{
			"bufferView":36,
			"componentType":5126,
			"count":24,
			"max":[
				1.39501953125,
				2.6695653687625054e-08,
				1.4062960147857666
			],
			"min":[
				-1.3950042724609375,
				-93.55276489257812,
				-1.4062919616699219
			],
			"type":"VEC3"
		},
		{
			"bufferView":37,
			"componentType":5126,
			"count":24,
			"type":"VEC3"
		},
		{
			"bufferView":38,
			"componentType":5126,
			"count":24,
			"type":"VEC2"
		},
		{
			"bufferView":39,
			"componentType":5123,
			"count":36,
			"type":"SCALAR"
		},
		{
			"bufferView":40,
			"componentType":5126,
			"count":34,
			"max":[
				28.01129150390625,
				1.0000030994415283,
				3.7088282108306885
			],
			"min":[
				-1,
				-1.1114811059087515e-05,
				-11.171089172363281
			],
			"type":"VEC3"
		},
		{
			"bufferView":41,
			"componentType":5126,
			"count":34,
			"type":"VEC3"
		},
		{
			"bufferView":42,
			"componentType":5126,
			"count":34,
			"type":"VEC2"
		},
		{
			"bufferView":43,
			"componentType":5123,
			"count":60,
			"type":"SCALAR"
		},
		{
			"bufferView":44,
			"componentType":5126,
			"count":124,
			"max":[
				3.2584136988589307e-07,
				0,
				1
			],
			"min":[
				-1.8828452825546265,
				-0.05118117108941078,
				-7.549790126404332e-08
			],
			"type":"VEC3"
		},
		{
			"bufferView":45,
			"componentType":5126,
			"count":124,
			"type":"VEC3"
		},
		{
			"bufferView":46,
			"componentType":5126,
			"count":124,
			"type":"VEC2"
		},
		{
			"bufferView":47,
			"componentType":5123,
			"count":228,
			"type":"SCALAR"
		},
		{
			"bufferView":48,
			"componentType":5126,
			"count":154,
			"max":[
				0.5859450697898865,
				0,
				1.7195236682891846
			],
			"min":[
				-1,
				-0.05118117108941078,
				-7.549790126404332e-08
			],
			"type":"VEC3"
		},
		{
			"bufferView":49,
			"componentType":5126,
			"count":154,
			"type":"VEC3"
		},
		{
			"bufferView":50,
			"componentType":5126,
			"count":154,
			"type":"VEC2"
		},
		{
			"bufferView":51,
			"componentType":5123,
			"count":282,
			"type":"SCALAR"
		},
		{
			"bufferView":52,
			"componentType":5126,
			"count":24,
			"max":[
				1,
				460,
				1
			],
			"min":[
				-1,
				0,
				-1
			],
			"type":"VEC3"
		},
		{
			"bufferView":53,
			"componentType":5126,
			"count":24,
			"type":"VEC3"
		},
		{
			"bufferView":54,
			"componentType":5126,
			"count":24,
			"type":"VEC2"
		},
		{
			"bufferView":55,
			"componentType":5126,
			"count":24,
			"max":[
				1,
				460,
				1
			],
			"min":[
				-1,
				0,
				-1
			],
			"type":"VEC3"
		},
		{
			"bufferView":56,
			"componentType":5126,
			"count":24,
			"type":"VEC3"
		},
		{
			"bufferView":57,
			"componentType":5126,
			"count":24,
			"type":"VEC2"
		},
		{
			"bufferView":58,
			"componentType":5126,
			"count":94,
			"max":[
				252,
				2,
				2
			],
			"min":[
				-2,
				-5.339130737525011e-08,
				-452
			],
			"type":"VEC3"
		},
		{
			"bufferView":59,
			"componentType":5126,
			"count":94,
			"type":"VEC3"
		},
		{
			"bufferView":60,
			"componentType":5126,
			"count":94,
			"type":"VEC2"
		},
		{
			"bufferView":61,
			"componentType":5123,
			"count":162,
			"type":"SCALAR"
		},
		{
			"bufferView":62,
			"componentType":5126,
			"count":42,
			"max":[
				250,
				100,
				4.547473508864641e-13
			],
			"min":[
				0,
				0,
				-450
			],
			"type":"VEC3"
		},
		{
			"bufferView":63,
			"componentType":5126,
			"count":42,
			"type":"VEC3"
		},
		{
			"bufferView":64,
			"componentType":5123,
			"count":72,
			"type":"SCALAR"
		}
	],
	"bufferViews":[
		{
			"buffer":0,
			"byteLength":288,
			"byteOffset":0,
			"target":34962
		},
		{
			"buffer":0,
			"byteLength":288,
			"byteOffset":288,
			"target":34962
		},
		{
			"buffer":0,
			"byteLength":72,
			"byteOffset":576,
			"target":34963
		},
		{
			"buffer":0,
			"byteLength":288,
			"byteOffset":648,
			"target":34962
		},
		{
			"buffer":0,
			"byteLength":288,
			"byteOffset":936,
			"target":34962
		},
		{
			"buffer":0,
			"byteLength":288,
			"byteOffset":1224,
			"target":34962
		},
		{
			"buffer":0,
			"byteLength":288,
			"byteOffset":1512,
			"target":34962
		},
		{
			"buffer":0,
			"byteLength":288,
			"byteOffset":1800,
			"target":34962
		},
		{
			"buffer":0,
			"byteLength":288,
			"byteOffset":2088,
			"target":34962
		},
		{
			"buffer":0,
			"byteLength":288,
			"byteOffset":2376,
			"target":34962
		},
		{
			"buffer":0,
			"byteLength":288,
			"byteOffset":2664,
			"target":34962
		},
		{
			"buffer":0,
			"byteLength":192,
			"byteOffset":2952,
			"target":34962
		},
		{
			"buffer":0,
			"byteLength":72,
			"byteOffset":3144,
			"target":34963
		},
		{
			"buffer":0,
			"byteLength":288,
			"byteOffset":3216,
			"target":34962
		},
		{
			"buffer":0,
			"byteLength":288,
			"byteOffset":3504,
			"target":34962
		},
		{
			"buffer":0,
			"byteLength":192,
			"byteOffset":3792,
			"target":34962
		},
		{
			"buffer":0,
			"byteLength":288,
			"byteOffset":3984,
			"target":34962
		},
		{
			"buffer":0,
			"byteLength":288,
			"byteOffset":4272,
			"target":34962
		},
		{
			"buffer":0,
			"byteLength":192,
			"byteOffset":4560,
			"target":34962
		},
		{
			"buffer":0,
			"byteLength":288,
			"byteOffset":4752,
			"target":34962
		},
		{
			"buffer":0,
			"byteLength":288,
			"byteOffset":5040,
			"target":34962
		},
		{
			"buffer":0,
			"byteLength":192,
			"byteOffset":5328,
			"target":34962
		},
		{
			"buffer":0,
			"byteLength":288,
			"byteOffset":5520,
			"target":34962
		},
		{
			"buffer":0,
			"byteLength":288,
			"byteOffset":5808,
			"target":34962
		},
		{
			"buffer":0,
			"byteLength":192,
			"byteOffset":6096,
			"target":34962
		},
		{
			"buffer":0,
			"byteLength":288,
			"byteOffset":6288,
			"target":34962
		},
		{
			"buffer":0,
			"byteLength":288,
			"byteOffset":6576,
			"target":34962
		},
		{
			"buffer":0,
			"byteLength":192,
			"byteOffset":6864,
			"target":34962
		},
		{
			"buffer":0,
			"byteLength":432,
			"byteOffset":7056,
			"target":34962
		},
		{
			"buffer":0,
			"byteLength":432,
			"byteOffset":7488,
			"target":34962
		},
		{
			"buffer":0,
			"byteLength":288,
			"byteOffset":7920,
			"target":34962
		},
		{
			"buffer":0,
			"byteLength":108,
			"byteOffset":8208,
			"target":34963
		},
		{
			"buffer":0,
			"byteLength":240,
			"byteOffset":8316,
			"target":34962
		},
		{
			"buffer":0,
			"byteLength":240,
			"byteOffset":8556,
			"target":34962
		},
		{
			"buffer":0,
			"byteLength":160,
			"byteOffset":8796,
			"target":34962
		},
		{
			"buffer":0,
			"byteLength":60,
			"byteOffset":8956,
			"target":34963
		},
		{
			"buffer":0,
			"byteLength":288,
			"byteOffset":9016,
			"target":34962
		},
		{
			"buffer":0,
			"byteLength":288,
			"byteOffset":9304,
			"target":34962
		},
		{
			"buffer":0,
			"byteLength":192,
			"byteOffset":9592,
			"target":34962
		},
		{
			"buffer":0,
			"byteLength":72,
			"byteOffset":9784,
			"target":34963
		},
		{
			"buffer":0,
			"byteLength":408,
			"byteOffset":9856,
			"target":34962
		},
		{
			"buffer":0,
			"byteLength":408,
			"byteOffset":10264,
			"target":34962
		},
		{
			"buffer":0,
			"byteLength":272,
			"byteOffset":10672,
			"target":34962
		},
		{
			"buffer":0,
			"byteLength":120,
			"byteOffset":10944,
			"target":34963
		},
		{
			"buffer":0,
			"byteLength":1488,
			"byteOffset":11064,
			"target":34962
		},
		{
			"buffer":0,
			"byteLength":1488,
			"byteOffset":12552,
			"target":34962
		},
		{
			"buffer":0,
			"byteLength":992,
			"byteOffset":14040,
			"target":34962
		},
		{
			"buffer":0,
			"byteLength":456,
			"byteOffset":15032,
			"target":34963
		},
		{
			"buffer":0,
			"byteLength":1848,
			"byteOffset":15488,
			"target":34962
		},
		{
			"buffer":0,
			"byteLength":1848,
			"byteOffset":17336,
			"target":34962
		},
		{
			"buffer":0,
			"byteLength":1232,
			"byteOffset":19184,
			"target":34962
		},
		{
			"buffer":0,
			"byteLength":564,
			"byteOffset":20416,
			"target":34963
		},
		{
			"buffer":0,
			"byteLength":288,
			"byteOffset":20980,
			"target":34962
		},
		{
			"buffer":0,
			"byteLength":288,
			"byteOffset":21268,
			"target":34962
		},
		{
			"buffer":0,
			"byteLength":192,
			"byteOffset":21556,
			"target":34962
		},
		{
			"buffer":0,
			"byteLength":288,
			"byteOffset":21748,
			"target":34962
		},
		{
			"buffer":0,
			"byteLength":288,
			"byteOffset":22036,
			"target":34962
		},
		{
			"buffer":0,
			"byteLength":192,
			"byteOffset":22324,
			"target":34962
		},
		{
			"buffer":0,
			"byteLength":1128,
			"byteOffset":22516,
			"target":34962
		},
		{
			"buffer":0,
			"byteLength":1128,
			"byteOffset":23644,
			"target":34962
		},
		{
			"buffer":0,
			"byteLength":752,
			"byteOffset":24772,
			"target":34962
		},
		{
			"buffer":0,
			"byteLength":324,
			"byteOffset":25524,
			"target":34963
		},
		{
			"buffer":0,
			"byteLength":504,
			"byteOffset":25848,
			"target":34962
		},
		{
			"buffer":0,
			"byteLength":504,
			"byteOffset":26352,
			"target":34962
		},
		{
			"buffer":0,
			"byteLength":144,
			"byteOffset":26856,
			"target":34963
		}
	],
	"samplers":[
		{
			"magFilter":9729,
			"minFilter":9987
		}
	],
	"buffers":[
		{
			"byteLength":27000,
			"uri":"building3333.bin"
		}
	]
}
