{
	"asset":{
		"generator":"Khronos glTF Blender I/O v4.3.47",
		"version":"2.0"
	},
	"extensionsUsed":[
		"KHR_materials_transmission",
		"KHR_materials_emissive_strength",
		"KHR_materials_ior"
	],
	"scene":0,
	"scenes":[
		{
			"name":"Scene",
			"nodes":[
				0,
				1
			]
		}
	],
	"nodes":[
		{
			"mesh":0,
			"name":"Coffee Sign",
			"rotation":[
				0.5508562326431274,
				-0.5508562922477722,
				0.4433479905128479,
				0.4433479607105255
			]
		},
		{
			"mesh":1,
			"name":"Plane",
			"scale":[
				-6.1504411697387695,
				-6.1504411697387695,
				-6.1504411697387695
			],
			"translation":[
				0,
				-1.0343176126480103,
				0
			]
		}
	],
	"materials":[
		{
			"doubleSided":true,
			"emissiveFactor":[
				1,
				0.11828577518463135,
				0.004230296239256859
			],
			"extensions":{
				"KHR_materials_emissive_strength":{
					"emissiveStrength":8.5
				}
			},
			"name":"Neon Orange",
			"pbrMetallicRoughness":{
				"baseColorFactor":[
					0,
					0,
					0,
					1
				]
			}
		},
		{
			"doubleSided":true,
			"name":"Sign Background",
			"pbrMetallicRoughness":{
				"baseColorFactor":[
					0.3508251905441284,
					0.08666037768125534,
					0.3267916142940521,
					1
				],
				"metallicFactor":0.10454545170068741,
				"roughnessFactor":0.3863636553287506
			}
		},
		{
			"doubleSided":true,
			"emissiveFactor":[
				0.6254080985255857,
				0.03451684071996214,
				1
			],
			"extensions":{
				"KHR_materials_emissive_strength":{
					"emissiveStrength":5.503043174743652
				}
			},
			"name":"Neon Purple",
			"pbrMetallicRoughness":{
				"baseColorFactor":[
					0,
					0,
					0,
					1
				]
			}
		},
		{
			"doubleSided":true,
			"emissiveFactor":[
				0.0010481930803507566,
				0.8482186198234558,
				1
			],
			"extensions":{
				"KHR_materials_emissive_strength":{
					"emissiveStrength":8.5
				}
			},
			"name":"Neon Blue",
			"pbrMetallicRoughness":{
				"baseColorFactor":[
					0,
					0,
					0,
					1
				]
			}
		},
		{
			"doubleSided":true,
			"emissiveFactor":[
				0.8731714487075806,
				0.06875164061784744,
				1
			],
			"extensions":{
				"KHR_materials_emissive_strength":{
					"emissiveStrength":5
				}
			},
			"name":"Neon Pink",
			"pbrMetallicRoughness":{
				"baseColorFactor":[
					0,
					0,
					0,
					1
				]
			}
		},
		{
			"doubleSided":true,
			"extensions":{
				"KHR_materials_transmission":{
					"transmissionFactor":1
				},
				"KHR_materials_ior":{
					"ior":1.4500000476837158
				}
			},
			"name":"Floor",
			"pbrMetallicRoughness":{
				"metallicFactor":0,
				"roughnessFactor":0.26363635063171387
			}
		}
	],
	"meshes":[
		{
			"name":"Text.005",
			"primitives":[
				{
					"attributes":{
						"POSITION":0,
						"NORMAL":1,
						"TEXCOORD_0":2
					},
					"indices":3,
					"material":0
				},
				{
					"attributes":{
						"POSITION":4,
						"NORMAL":5,
						"TEXCOORD_0":6
					},
					"indices":7,
					"material":1
				},
				{
					"attributes":{
						"POSITION":8,
						"NORMAL":9,
						"TEXCOORD_0":10
					},
					"indices":11,
					"material":2
				},
				{
					"attributes":{
						"POSITION":12,
						"NORMAL":13,
						"TEXCOORD_0":14
					},
					"indices":15,
					"material":3
				},
				{
					"attributes":{
						"POSITION":16,
						"NORMAL":17,
						"TEXCOORD_0":18
					},
					"indices":19,
					"material":4
				}
			]
		},
		{
			"name":"Plane",
			"primitives":[
				{
					"attributes":{
						"POSITION":20,
						"NORMAL":21,
						"TEXCOORD_0":22
					},
					"indices":23,
					"material":5
				}
			]
		}
	],
	"accessors":[
		{
			"bufferView":0,
			"componentType":5126,
			"count":38675,
			"max":[
				2.714287757873535,
				-0.009185112081468105,
				0.9909940958023071
			],
			"min":[
				-2.8196349143981934,
				-0.029185127466917038,
				-0.9389832019805908
			],
			"type":"VEC3"
		},
		{
			"bufferView":1,
			"componentType":5126,
			"count":38675,
			"type":"VEC3"
		},
		{
			"bufferView":2,
			"componentType":5126,
			"count":38675,
			"type":"VEC2"
		},
		{
			"bufferView":3,
			"componentType":5123,
			"count":111168,
			"type":"SCALAR"
		},
		{
			"bufferView":4,
			"componentType":5126,
			"count":12,
			"max":[
				3.128059148788452,
				0.03626622259616852,
				1.6018441915512085
			],
			"min":[
				-3.1280808448791504,
				-0.050000227987766266,
				-1.6018420457839966
			],
			"type":"VEC3"
		},
		{
			"bufferView":5,
			"componentType":5126,
			"count":12,
			"type":"VEC3"
		},
		{
			"bufferView":6,
			"componentType":5126,
			"count":12,
			"type":"VEC2"
		},
		{
			"bufferView":7,
			"componentType":5123,
			"count":18,
			"type":"SCALAR"
		},
		{
			"bufferView":8,
			"componentType":5126,
			"count":196,
			"max":[
				3.1414756774902344,
				0.05000016838312149,
				1.6152607202529907
			],
			"min":[
				-3.1414976119995117,
				-0.050000227987766266,
				-1.6152585744857788
			],
			"type":"VEC3"
		},
		{
			"bufferView":9,
			"componentType":5126,
			"count":196,
			"type":"VEC3"
		},
		{
			"bufferView":10,
			"componentType":5126,
			"count":196,
			"type":"VEC2"
		},
		{
			"bufferView":11,
			"componentType":5123,
			"count":306,
			"type":"SCALAR"
		},
		{
			"bufferView":12,
			"componentType":5126,
			"count":8737,
			"max":[
				1.999292254447937,
				0.03869020193815231,
				0.7975853681564331
			],
			"min":[
				-2.049006223678589,
				-0.03869025036692619,
				-0.7274957895278931
			],
			"type":"VEC3"
		},
		{
			"bufferView":13,
			"componentType":5126,
			"count":8737,
			"type":"VEC3"
		},
		{
			"bufferView":14,
			"componentType":5126,
			"count":8737,
			"type":"VEC2"
		},
		{
			"bufferView":15,
			"componentType":5123,
			"count":44124,
			"type":"SCALAR"
		},
		{
			"bufferView":16,
			"componentType":5126,
			"count":48,
			"max":[
				2.0857291221618652,
				0.00943763554096222,
				1.0731443166732788
			],
			"min":[
				-2.1873128414154053,
				-0.02918536588549614,
				-0.9989597201347351
			],
			"type":"VEC3"
		},
		{
			"bufferView":17,
			"componentType":5126,
			"count":48,
			"type":"VEC3"
		},
		{
			"bufferView":18,
			"componentType":5126,
			"count":48,
			"type":"VEC2"
		},
		{
			"bufferView":19,
			"componentType":5123,
			"count":72,
			"type":"SCALAR"
		},
		{
			"bufferView":20,
			"componentType":5126,
			"count":4,
			"max":[
				1,
				0,
				1
			],
			"min":[
				-1,
				0,
				-1
			],
			"type":"VEC3"
		},
		{
			"bufferView":21,
			"componentType":5126,
			"count":4,
			"type":"VEC3"
		},
		{
			"bufferView":22,
			"componentType":5126,
			"count":4,
			"type":"VEC2"
		},
		{
			"bufferView":23,
			"componentType":5123,
			"count":6,
			"type":"SCALAR"
		}
	],
	"bufferViews":[
		{
			"buffer":0,
			"byteLength":464100,
			"byteOffset":0,
			"target":34962
		},
		{
			"buffer":0,
			"byteLength":464100,
			"byteOffset":464100,
			"target":34962
		},
		{
			"buffer":0,
			"byteLength":309400,
			"byteOffset":928200,
			"target":34962
		},
		{
			"buffer":0,
			"byteLength":222336,
			"byteOffset":1237600,
			"target":34963
		},
		{
			"buffer":0,
			"byteLength":144,
			"byteOffset":1459936,
			"target":34962
		},
		{
			"buffer":0,
			"byteLength":144,
			"byteOffset":1460080,
			"target":34962
		},
		{
			"buffer":0,
			"byteLength":96,
			"byteOffset":1460224,
			"target":34962
		},
		{
			"buffer":0,
			"byteLength":36,
			"byteOffset":1460320,
			"target":34963
		},
		{
			"buffer":0,
			"byteLength":2352,
			"byteOffset":1460356,
			"target":34962
		},
		{
			"buffer":0,
			"byteLength":2352,
			"byteOffset":1462708,
			"target":34962
		},
		{
			"buffer":0,
			"byteLength":1568,
			"byteOffset":1465060,
			"target":34962
		},
		{
			"buffer":0,
			"byteLength":612,
			"byteOffset":1466628,
			"target":34963
		},
		{
			"buffer":0,
			"byteLength":104844,
			"byteOffset":1467240,
			"target":34962
		},
		{
			"buffer":0,
			"byteLength":104844,
			"byteOffset":1572084,
			"target":34962
		},
		{
			"buffer":0,
			"byteLength":69896,
			"byteOffset":1676928,
			"target":34962
		},
		{
			"buffer":0,
			"byteLength":88248,
			"byteOffset":1746824,
			"target":34963
		},
		{
			"buffer":0,
			"byteLength":576,
			"byteOffset":1835072,
			"target":34962
		},
		{
			"buffer":0,
			"byteLength":576,
			"byteOffset":1835648,
			"target":34962
		},
		{
			"buffer":0,
			"byteLength":384,
			"byteOffset":1836224,
			"target":34962
		},
		{
			"buffer":0,
			"byteLength":144,
			"byteOffset":1836608,
			"target":34963
		},
		{
			"buffer":0,
			"byteLength":48,
			"byteOffset":1836752,
			"target":34962
		},
		{
			"buffer":0,
			"byteLength":48,
			"byteOffset":1836800,
			"target":34962
		},
		{
			"buffer":0,
			"byteLength":32,
			"byteOffset":1836848,
			"target":34962
		},
		{
			"buffer":0,
			"byteLength":12,
			"byteOffset":1836880,
			"target":34963
		}
	],
	"buffers":[
		{
			"byteLength":1836892,
			"uri":"coffeesign.bin"
		}
	]
}
